# xmcd
#
# Track frame offsets:
#	150
#	14368
#	29344
#	46997
#	57395
#	76594
#	90429
#	102711
#	118267
#	127966
#	141259
#	152695
#	168556
#	182580
#	196128
#	211727
#	224063
#	235274
#	249598
#	268766
#
# Disc length: 3718 seconds
# Revision: 0
# Processed by: cddbd v1.5.2PL0 Copyright (c) Steve Scherf et al.
# Submitted via: dBpowerAMP V12.0
#
DISCID=1b0e8414
DTITLE=Various Artist - The Rough Guide to Bluegrass
DYEAR=1900
DGENRE=Bluegrass
TTITLE0=Larry Sparks - Gospel Train
TTITLE1=Alison Krauss and Union Station - Every Time You Say Goodbye
TTITLE2=Bluegrass Album Band - Lonesome Moonlight Waltz
TTITLE3=Country Gentlemen - Matterhorn
TTITLE4=Hazel Dickens - Hills of Home
TTITLE5=Rhonda Vincent - Lonesome Wind Blues
TTITLE6=Red Allen and The Kentuckians - Hello City Limits
TTITLE7=Johnson Mountain Boys - My Better Years
TTITLE8=Emerson and Waldron - Shiloh
TTITLE9=Ralph Stanley and The Clinch Mt. Boys Featuring Tom T. Hall - Rank Stranger
TTITLE10=Long View - Brighter Mansion
TTITLE11=J.D. Crowe and The New South - Nashville Blues
TTITLE12=Claire Lynch - Sweetheart, Darlin' of Mine
TTITLE13=Tony Rice - I've Waited as Long as I Can
TTITLE14=Bela Fleck - Crossfire
TTITLE15=Hazel Dickens - You'll Get no More of me
TTITLE16=The McCoury Brothers - My Sweet Love Ain't Around
TTITLE17=IIIrd Time Out - Can't Say Goodbye
TTITLE18=Lynn Morris - Mama's Hands
TTITLE19=Dry Branch Fire Squad - I've Lived a Lot in my Time
EXTD=
EXTT0=
EXTT1=
EXTT2=
EXTT3=
EXTT4=
EXTT5=
EXTT6=
EXTT7=
EXTT8=
EXTT9=
EXTT10=
EXTT11=
EXTT12=
EXTT13=
EXTT14=
EXTT15=
EXTT16=
EXTT17=
EXTT18=
EXTT19=
PLAYORDER=
